# xmcd
#
# Track frame offsets:
#	150
#	15777
#	29216
#	45498
#	64007
#	76337
#	91832
#	107956
#	125713
#	141148
#	156478
#	173391
#	191309
#	211182
#	231259
#
# Disc length: 3323 seconds
#
# Revision: 1
# Processed by: cddbd v1.5.2PL0 Copyright (c) Steve Scherf et al.
# Submitted via: audiograbber 1.83.01
#
DISCID=bf0cf90f
DTITLE=Brooks and Dunn - Chartbuster Karaoke Volume 3
DYEAR=1900
DGENRE=Country
TTITLE0=Play Something Country
TTITLE1=Whiskey Under The Bridge
TTITLE2=A'int Nothing 'Bout You
TTITLE3=If You See Him - If You See Her
TTITLE4=Beer Thirty
TTITLE5=He's Got You
TTITLE6=My Maria
TTITLE7=Missing You
TTITLE8=You're My Angle
TTITLE9=Honkey Tonk Truth
TTITLE10=I Am That Man
TTITLE11=South Of Santa Fe
TTITLE12=Why would I Say Goodbye
TTITLE13=You're Gonna Miss Me When I'm Gone
TTITLE14=Hillbilly Deluxe
EXTD=
EXTT0=
EXTT1=
EXTT2=
EXTT3=
EXTT4=
EXTT5=
EXTT6=
EXTT7=
EXTT8=
EXTT9=
EXTT10=
EXTT11=
EXTT12=
EXTT13=
EXTT14=
PLAYORDER=
